<svg preserveAspectRatio="none" width="100%" height="100%" overflow="visible" style="display: block;" viewBox="0 0 91.7823 81.8566" fill="none" xmlns="http://www.w3.org/2000/svg">
<g id="Arrow">
<g id="Vector">
<path fill-rule="evenodd" clip-rule="evenodd" d="M66.672 81.3389C66.672 81.3389 66.672 81.3391 66.5221 81.3328C66.3921 81.4075 66.392 81.4074 66.392 81.4074L66.3878 81.4001L66.3751 81.378L66.3246 81.2912C66.2801 81.215 66.2143 81.1029 66.1292 80.9596C65.9589 80.673 65.7114 80.2615 65.4024 79.7627C64.7843 78.765 63.9209 77.4183 62.9393 76.0222C61.9573 74.6257 60.8589 73.1822 59.7709 71.9895C58.6789 70.7924 57.6119 69.8644 56.6942 69.4781L56.8105 69.2016C57.7925 69.6149 58.8965 70.5858 59.9925 71.7873C61.0925 72.9931 62.1991 74.4479 63.1847 75.8497C64.1706 77.2519 65.0373 78.6037 65.6574 79.6047C65.9675 80.1053 66.216 80.5184 66.3871 80.8064C66.391 80.813 66.3949 80.8195 66.3988 80.826C66.4043 80.7312 66.4109 80.6241 66.4185 80.5056C66.452 79.9867 66.5062 79.2497 66.5891 78.3766C66.7547 76.631 67.0352 74.3387 67.4948 72.1573C67.9533 69.9812 68.5939 67.8949 69.4892 66.576C69.9375 65.9157 70.461 65.4307 71.0738 65.236C71.6934 65.0391 72.3753 65.148 73.1154 65.6152L72.9552 65.8689C72.2706 65.4366 71.6803 65.3581 71.1646 65.5219C70.6421 65.6879 70.1669 66.1118 69.7374 66.7445C68.8773 68.0115 68.2458 70.0478 67.7884 72.2191C67.332 74.3851 67.0528 76.665 66.8877 78.4049C66.8052 79.2745 66.7512 80.0085 66.7179 80.5249C66.7013 80.7831 66.6898 80.9869 66.6825 81.126C66.6788 81.1956 66.6762 81.249 66.6745 81.2849L66.6726 81.3256L66.672 81.3389ZM66.5221 81.3328L66.392 81.4074L66.65 81.8566L66.672 81.3389L66.5221 81.3328Z" fill="var(--fill-0, white)"/>
<path fill-rule="evenodd" clip-rule="evenodd" d="M53.0793 30.2918C60.3903 42.9705 65.044 57.3143 65.044 70.5395L64.744 70.5395C64.744 57.3801 60.1116 43.0878 52.8195 30.4416C45.5273 17.7955 35.5831 6.80912 24.9745 0.255224L25.1322 1.67886e-06C35.7922 6.58568 45.7684 17.613 53.0793 30.2918Z" fill="var(--fill-0, white)"/>
</g>
</g>
</svg>
