<svg preserveAspectRatio="none" width="100%" height="100%" overflow="visible" style="display: block;" viewBox="0 0 188.584 57.8989" fill="none" xmlns="http://www.w3.org/2000/svg">
<path id="Ellipse 5" d="M94.292 0.5C120.294 0.500003 143.815 3.73653 160.819 8.95703C169.324 11.5682 176.171 14.6677 180.88 18.0859C185.6 21.5122 188.084 25.1893 188.084 28.9492C188.084 32.7092 185.6 36.3872 180.88 39.8135C176.171 43.2316 169.324 46.3302 160.819 48.9414C143.815 54.1619 120.294 57.3984 94.292 57.3984C68.2896 57.3984 44.7686 54.1619 27.7646 48.9414C19.2598 46.3303 12.4132 43.2316 7.7041 39.8135C2.98386 36.3872 0.5 32.7092 0.5 28.9492C0.500103 25.1893 2.98396 21.5122 7.7041 18.0859C12.4132 14.6678 19.2597 11.5682 27.7646 8.95703C44.7686 3.73654 68.2897 0.5 94.292 0.5Z" stroke="var(--stroke-0, white)"/>
</svg>
