<svg preserveAspectRatio="none" width="100%" height="100%" overflow="visible" style="display: block;" viewBox="0 0 110.001 18.2723" fill="none" xmlns="http://www.w3.org/2000/svg">
<g id="Social Icons">
<path id="Vector" d="M109.842 7.48972C109.948 8.10292 110.002 8.7242 110.001 9.34659C110.001 12.1262 109.007 14.4764 107.278 16.0672H107.28C105.769 17.4638 103.69 18.2723 101.226 18.2723C98.8027 18.2723 96.479 17.3098 94.7657 15.5965C93.0524 13.8832 92.0898 11.5594 92.0898 9.13646C92.0898 6.71348 93.0524 4.38974 94.7657 2.67643C96.479 0.963128 98.8027 0.000602837 101.226 0.000602837C103.494 -0.0259578 105.684 0.826065 107.338 2.37821L104.729 4.9865C103.786 4.08773 102.528 3.59555 101.226 3.61612C98.8424 3.61612 96.8176 5.22403 96.0959 7.38923C95.7132 8.52379 95.7132 9.75255 96.0959 10.8871H96.0993C96.8245 13.0489 98.8458 14.6568 101.229 14.6568C102.46 14.6568 103.518 14.3416 104.338 13.7843H104.334C104.81 13.4689 105.218 13.0603 105.531 12.5832C105.845 12.106 106.059 11.5703 106.16 11.0082H101.226V7.49086H109.842V7.48972Z" fill="var(--fill-0, white)"/>
<path id="Vector_2" fill-rule="evenodd" clip-rule="evenodd" d="M55.1808 0C50.1378 0 46.0449 4.09286 46.0449 9.13586C46.0449 14.1788 50.1378 18.2717 55.1808 18.2717C60.2146 18.2717 64.3166 14.1788 64.3166 9.13586C64.3166 4.09286 60.2146 0 55.1808 0ZM61.215 4.21163C62.3397 5.58118 62.9622 7.29412 62.9794 9.0662C62.7213 9.01709 60.145 8.49178 57.5492 8.81839C57.4899 8.69048 57.4396 8.55116 57.3802 8.41298C57.2215 8.03613 57.0434 7.65014 56.8652 7.28242C59.7384 6.11417 61.0471 4.42975 61.2162 4.21049L61.215 4.21163ZM55.1808 1.34754C57.1621 1.34754 58.9756 2.08983 60.354 3.30946C60.2146 3.50817 59.035 5.08296 56.2611 6.12331C54.9821 3.77539 53.566 1.85229 53.3479 1.55538C53.9487 1.4151 54.5638 1.34534 55.1808 1.34754V1.34754ZM51.861 2.08069C52.9067 3.52992 53.8727 5.03499 54.7548 6.58924C51.1085 7.55992 47.8881 7.54051 47.5409 7.54051C47.792 6.35939 48.3125 5.25222 49.0619 4.30537C49.8112 3.35851 50.7692 2.59755 51.861 2.08183V2.08069ZM47.373 9.14728V8.90746C47.7099 8.91888 51.4956 8.96799 55.3898 7.7986C55.617 8.23369 55.8249 8.68021 56.0236 9.12558L55.7152 9.21465C51.6932 10.5131 49.5531 14.0601 49.3738 14.3581C48.0854 12.9279 47.3727 11.0711 47.373 9.14613V9.14728ZM55.1808 16.9436C53.4467 16.9463 51.7619 16.3673 50.3959 15.2991C50.5329 15.0114 52.1191 11.96 56.518 10.424C56.5386 10.4137 56.5477 10.4137 56.5683 10.4046C57.3099 12.319 57.867 14.2998 58.2322 16.3201C57.2683 16.7342 56.2298 16.9464 55.1808 16.9436V16.9436ZM59.5317 15.6063C59.4518 15.1301 59.035 12.8519 58.0152 10.0472C60.4624 9.66117 62.6025 10.295 62.8697 10.384C62.7033 11.4377 62.3207 12.4455 61.7461 13.3443C61.1715 14.243 60.4172 15.0131 59.5306 15.6063H59.5317Z" fill="var(--fill-0, white)"/>
<path id="Vector_3" d="M9.13586 0C6.65661 0 6.34485 0.0114198 5.37074 0.0548151C4.39663 0.100494 3.73314 0.25352 3.15187 0.479632C2.54216 0.708964 1.98989 1.0687 1.53368 1.53368C1.06898 1.99013 0.709293 2.54233 0.479632 3.15187C0.25352 3.732 0.0993524 4.39663 0.0548151 5.36732C0.0114198 6.34371 0 6.65433 0 9.137C0 11.6174 0.0114198 11.928 0.0548151 12.9021C0.100494 13.8751 0.25352 14.5386 0.479632 15.1198C0.713739 15.7205 1.0255 16.2298 1.53368 16.738C2.04072 17.2462 2.55005 17.5591 3.15073 17.7921C3.73314 18.0182 4.39549 18.1724 5.36846 18.2169C6.34371 18.2603 6.65433 18.2717 9.13586 18.2717C11.6174 18.2717 11.9269 18.2603 12.9021 18.2169C13.8739 18.1712 14.5397 18.0182 15.121 17.7921C15.7303 17.5626 16.2822 17.2029 16.738 16.738C17.2462 16.2298 17.558 15.7205 17.7921 15.1198C18.0171 14.5386 18.1712 13.8751 18.2169 12.9021C18.2603 11.928 18.2717 11.6174 18.2717 9.13586C18.2717 6.65433 18.2603 6.34371 18.2169 5.36846C18.1712 4.39663 18.0171 3.732 17.7921 3.15187C17.5625 2.54231 17.2028 1.9901 16.738 1.53368C16.282 1.06852 15.7297 0.708766 15.1198 0.479632C14.5374 0.25352 13.8728 0.0993524 12.901 0.0548151C11.9257 0.0114198 11.6162 0 9.13357 0H9.137H9.13586ZM8.31706 1.64674H9.137C11.5763 1.64674 11.8652 1.65473 12.8279 1.69927C13.7186 1.73924 14.2028 1.88884 14.5249 2.01331C14.9508 2.1789 15.2557 2.37761 15.5755 2.69736C15.8952 3.01712 16.0928 3.32088 16.2584 3.74799C16.384 4.06888 16.5325 4.55308 16.5724 5.44383C16.617 6.40652 16.6261 6.69544 16.6261 9.13357C16.6261 11.5717 16.617 11.8618 16.5724 12.8245C16.5325 13.7152 16.3829 14.1983 16.2584 14.5203C16.1119 14.917 15.8781 15.2757 15.5744 15.5698C15.2546 15.8895 14.9508 16.0871 14.5237 16.2527C14.204 16.3783 13.7198 16.5268 12.8279 16.5679C11.8652 16.6113 11.5763 16.6215 9.137 16.6215C6.69773 16.6215 6.40766 16.6113 5.44497 16.5679C4.55422 16.5268 4.07117 16.3783 3.74913 16.2527C3.35229 16.1064 2.99328 15.8731 2.6985 15.5698C2.39445 15.2752 2.16031 14.9162 2.01331 14.5192C1.88884 14.1983 1.73924 13.7141 1.69927 12.8233C1.65587 11.8606 1.64674 11.5717 1.64674 9.13129C1.64674 6.69201 1.65587 6.40424 1.69927 5.44154C1.74038 4.5508 1.88884 4.0666 2.01446 3.74456C2.18004 3.3186 2.37875 3.01369 2.6985 2.69394C3.01826 2.37418 3.32203 2.17662 3.74913 2.01103C4.07117 1.88541 4.55422 1.73695 5.44497 1.69584C6.28775 1.65702 6.61436 1.6456 8.31706 1.64445V1.64674ZM14.0133 3.16329C13.8693 3.16329 13.7267 3.19165 13.5937 3.24674C13.4607 3.30184 13.3399 3.38259 13.2381 3.48439C13.1363 3.58619 13.0555 3.70705 13.0004 3.84006C12.9453 3.97307 12.917 4.11562 12.917 4.25959C12.917 4.40356 12.9453 4.54612 13.0004 4.67913C13.0555 4.81214 13.1363 4.933 13.2381 5.0348C13.3399 5.1366 13.4607 5.21735 13.5937 5.27244C13.7267 5.32754 13.8693 5.3559 14.0133 5.3559C14.304 5.3559 14.5829 5.24039 14.7885 5.0348C14.9941 4.8292 15.1096 4.55035 15.1096 4.25959C15.1096 3.96884 14.9941 3.68999 14.7885 3.48439C14.5829 3.27879 14.304 3.16329 14.0133 3.16329ZM9.137 4.44459C8.5147 4.43489 7.89669 4.54907 7.31894 4.7805C6.74119 5.01193 6.21525 5.35598 5.77175 5.79262C5.32824 6.22926 4.97603 6.74976 4.73562 7.32383C4.4952 7.89789 4.37139 8.51405 4.37139 9.13643C4.37139 9.7588 4.4952 10.375 4.73562 10.949C4.97603 11.5231 5.32824 12.0436 5.77175 12.4802C6.21525 12.9169 6.74119 13.2609 7.31894 13.4924C7.89669 13.7238 8.5147 13.838 9.137 13.8283C10.3687 13.809 11.5434 13.3063 12.4076 12.4285C13.2718 11.5507 13.7562 10.3683 13.7562 9.13643C13.7562 7.9046 13.2718 6.72218 12.4076 5.84438C11.5434 4.96658 10.3687 4.46381 9.137 4.44459ZM9.137 6.09019C9.94476 6.09019 10.7194 6.41107 11.2906 6.98225C11.8618 7.55342 12.1827 8.3281 12.1827 9.13586C12.1827 9.94362 11.8618 10.7183 11.2906 11.2895C10.7194 11.8606 9.94476 12.1815 9.137 12.1815C8.32924 12.1815 7.55456 11.8606 6.98339 11.2895C6.41221 10.7183 6.09133 9.94362 6.09133 9.13586C6.09133 8.3281 6.41221 7.55342 6.98339 6.98225C7.55456 6.41107 8.32924 6.09019 9.137 6.09019Z" fill="var(--fill-0, white)"/>
</g>
</svg>
