<svg id="Capa_1" enable-background="new 0 0 512.002 512.002" height="512" viewBox="0 0 512.002 512.002" width="512" xmlns="http://www.w3.org/2000/svg"><g><circle cx="256.002" cy="256.001" fill="#dad0cb" r="256"/><path d="m354.629 19.69c75.672 44.478 126.467 126.736 126.467 220.857 0 141.385-114.615 256-256 256-34.955 0-68.273-7.006-98.627-19.69 37.999 22.334 82.27 35.142 129.533 35.142 141.385 0 256-114.615 256-256 0-106.428-64.949-197.689-157.373-236.309z" fill="#c6beb9"/><path d="m256.002 49.186c-4.267 0-7.726-3.459-7.726-7.726v-15.704c0-4.267 3.459-7.726 7.726-7.726s7.726 3.459 7.726 7.726v15.704c0 4.267-3.459 7.726-7.726 7.726zm-53.528 7.048c4.122-1.105 6.568-5.341 5.464-9.463l-4.064-15.169c-1.105-4.122-5.342-6.566-9.463-5.464-4.122 1.105-6.568 5.341-5.464 9.463l4.064 15.169c.925 3.452 4.047 5.729 7.458 5.729.662 0 1.335-.086 2.005-.265zm-49.88 20.66c3.695-2.133 4.962-6.859 2.828-10.554l-7.852-13.6c-2.134-3.696-6.86-4.962-10.554-2.828-3.695 2.133-4.962 6.859-2.828 10.554l7.852 13.6c1.431 2.479 4.028 3.865 6.698 3.865 1.311 0 2.64-.334 3.856-1.037zm-42.832 32.867c3.018-3.017 3.018-7.91 0-10.927l-11.105-11.105c-3.017-3.017-7.91-3.017-10.927 0-3.018 3.017-3.018 7.91 0 10.927l11.105 11.105c1.509 1.509 3.486 2.263 5.463 2.263 1.978 0 3.955-.754 5.464-2.263zm-32.867 42.833c2.134-3.696.867-8.421-2.828-10.554l-13.6-7.852c-3.695-2.135-8.422-.867-10.554 2.828-2.134 3.696-.867 8.421 2.828 10.554l13.6 7.852c1.217.703 2.545 1.037 3.856 1.037 2.67-.001 5.268-1.387 6.698-3.865zm-20.661 49.879c1.104-4.122-1.342-8.358-5.464-9.463l-15.169-4.064c-4.117-1.1-8.358 1.342-9.463 5.464-1.104 4.122 1.342 8.358 5.464 9.463l15.169 4.064c.67.179 1.342.265 2.005.265 3.411 0 6.533-2.277 7.458-5.729zm-7.047 53.528c0-4.267-3.459-7.726-7.726-7.726h-15.704c-4.267 0-7.726 3.459-7.726 7.726s3.459 7.726 7.726 7.726h15.704c4.267 0 7.726-3.459 7.726-7.726zm-13.585 67.055 15.169-4.064c4.122-1.105 6.568-5.341 5.464-9.463-1.105-4.122-5.342-6.567-9.463-5.464l-15.169 4.064c-4.122 1.105-6.568 5.341-5.464 9.463.925 3.452 4.047 5.729 7.458 5.729.662 0 1.335-.086 2.005-.265zm24.865 54.758 13.6-7.852c3.695-2.133 4.962-6.859 2.828-10.554-2.134-3.696-6.859-4.962-10.554-2.828l-13.6 7.852c-3.695 2.133-4.962 6.859-2.828 10.554 1.431 2.479 4.028 3.865 6.698 3.865 1.311 0 2.639-.334 3.856-1.037zm38.19 46.458 11.105-11.105c3.018-3.017 3.018-7.91 0-10.927-3.017-3.017-7.91-3.017-10.927 0l-11.105 11.105c-3.018 3.017-3.018 7.91 0 10.927 1.509 1.509 3.486 2.263 5.463 2.263s3.955-.754 5.464-2.263zm48.914 34.99 7.852-13.6c2.134-3.696.867-8.421-2.828-10.554-3.696-2.134-8.422-.867-10.554 2.828l-7.852 13.6c-2.134 3.696-.867 8.421 2.828 10.554 1.217.703 2.545 1.037 3.856 1.037 2.669 0 5.267-1.386 6.698-3.865zm56.302 21.138 4.064-15.169c1.104-4.122-1.342-8.358-5.464-9.463-4.115-1.101-8.358 1.342-9.463 5.464l-4.064 15.169c-1.104 4.122 1.342 8.358 5.464 9.463.67.179 1.342.265 2.005.265 3.411 0 6.533-2.277 7.458-5.729zm59.855 5.846v-15.704c0-4.267-3.459-7.726-7.726-7.726s-7.726 3.459-7.726 7.726v15.704c0 4.267 3.459 7.726 7.726 7.726s7.726-3.459 7.726-7.726zm53.865-.382c4.122-1.105 6.568-5.341 5.464-9.463l-4.064-15.169c-1.105-4.122-5.344-6.566-9.463-5.464-4.122 1.105-6.568 5.341-5.464 9.463l4.064 15.169c.925 3.452 4.047 5.729 7.458 5.729.662 0 1.335-.086 2.005-.265zm57.394-23.774c3.695-2.133 4.962-6.859 2.828-10.554l-7.852-13.6c-2.134-3.696-6.859-4.961-10.554-2.828s-4.962 6.859-2.828 10.554l7.852 13.6c1.431 2.479 4.028 3.865 6.698 3.865 1.311 0 2.639-.334 3.856-1.037zm49.286-37.818c3.018-3.017 3.018-7.91 0-10.927l-11.105-11.105c-3.017-3.017-7.91-3.017-10.927 0-3.018 3.017-3.018 7.91 0 10.927l11.105 11.105c1.509 1.509 3.486 2.263 5.463 2.263s3.955-.754 5.464-2.263zm37.818-49.286c2.134-3.696.867-8.421-2.828-10.554l-13.6-7.852c-3.696-2.135-8.422-.868-10.554 2.828-2.134 3.696-.867 8.421 2.828 10.554l13.6 7.852c1.217.703 2.545 1.037 3.856 1.037 2.67 0 5.267-1.386 6.698-3.865zm23.773-57.394c1.104-4.122-1.342-8.358-5.464-9.463l-15.169-4.064c-4.115-1.101-8.358 1.341-9.463 5.464-1.104 4.122 1.342 8.358 5.464 9.463l15.169 4.064c.67.179 1.342.265 2.005.265 3.411 0 6.533-2.277 7.458-5.729zm8.109-61.591c0-4.267-3.459-7.726-7.726-7.726h-15.704c-4.267 0-7.726 3.459-7.726 7.726s3.459 7.726 7.726 7.726h15.704c4.267 0 7.726-3.459 7.726-7.726zm-28.741-48.064 15.169-4.064c4.122-1.105 6.568-5.341 5.464-9.463-1.105-4.122-5.342-6.564-9.463-5.464l-15.169 4.064c-4.122 1.105-6.568 5.341-5.464 9.463.925 3.452 4.047 5.729 7.458 5.729.662 0 1.335-.086 2.005-.265zm-19.569-52.515 13.6-7.852c3.695-2.133 4.962-6.859 2.828-10.554-2.133-3.695-6.86-4.963-10.554-2.828l-13.6 7.852c-3.695 2.133-4.962 6.859-2.828 10.554 1.431 2.479 4.028 3.865 6.698 3.865 1.31-.001 2.639-.335 3.856-1.037zm-32.495-45.661 11.105-11.105c3.018-3.017 3.018-7.91 0-10.927-3.017-3.017-7.91-3.017-10.927 0l-11.105 11.105c-3.018 3.017-3.018 7.91 0 10.927 1.509 1.509 3.486 2.263 5.463 2.263 1.978 0 3.956-.754 5.464-2.263zm-43.205-35.695 7.852-13.6c2.134-3.696.867-8.421-2.828-10.554-3.696-2.134-8.422-.868-10.554 2.828l-7.852 13.6c-2.134 3.696-.867 8.421 2.828 10.554 1.217.703 2.545 1.037 3.856 1.037 2.67 0 5.268-1.386 6.698-3.865zm-50.971-23.296 4.064-15.169c1.104-4.122-1.342-8.358-5.464-9.463-4.115-1.1-8.358 1.341-9.463 5.464l-4.064 15.169c-1.104 4.122 1.342 8.358 5.464 9.463.67.179 1.342.265 2.005.265 3.411 0 6.533-2.277 7.458-5.729z" fill="#eadfda"/><g fill="#dad0cb"><path d="m315.588 486.129c.662 0 1.335-.086 2.005-.265 3.898-1.045 6.296-4.889 5.612-8.789-4.659 1.935-9.387 3.736-14.18 5.398 1.401 2.261 3.893 3.656 6.563 3.656z"/><path d="m478.406 323.321c3.411 0 6.533-2.277 7.458-5.729 1.104-4.122-1.342-8.358-5.464-9.463l-7.761-2.08c-1.32 5.002-2.788 9.943-4.398 14.82l8.16 2.186c.67.18 1.343.266 2.005.266z"/><path d="m413.346 424.272c1.509 1.509 3.486 2.263 5.463 2.263s3.955-.755 5.463-2.263c3.018-3.017 3.018-7.91 0-10.927l-5.447-5.447c-3.373 3.902-6.863 7.701-10.462 11.391z"/><path d="m455.393 378.851c2.67 0 5.268-1.386 6.698-3.865 2.134-3.696.867-8.421-2.828-10.554l-7.684-4.436c-2.411 4.563-4.957 9.044-7.63 13.438l7.588 4.381c1.216.702 2.545 1.036 3.856 1.036z"/><path d="m493.973 256.001c0-4.267-3.459-7.726-7.726-7.726h-5.266c-.154 5.191-.462 10.344-.921 15.453h6.186c4.268-.001 7.727-3.46 7.727-7.727z"/><path d="m371.131 463.127c1.311 0 2.639-.334 3.856-1.037 3.695-2.133 4.962-6.859 2.828-10.554l-2.233-3.867c-4.173 3.037-8.441 5.951-12.799 8.737l1.649 2.857c1.432 2.478 4.029 3.864 6.699 3.864z"/></g><circle cx="256.002" cy="256.001" fill="#c6beb9" r="215.39"/><path d="m287.131 360.54c50.607-50.607 59.275-123.987 19.363-163.9-39.913-39.913-113.293-31.244-163.9 19.363-30.904 30.904-46.169 70.302-44.28 105.384 1.322 24.552-10.42 48.024-30.491 62.226-25.525 18.061-47.764 35.907-54.66 42.803-10.035 10.034-14.332 23.632-12.892 36.719.766 6.96 6.721 12.193 13.723 12.193 7.628 0 13.812 6.184 13.812 13.812 0 7.002 5.233 12.957 12.193 13.723 13.087 1.44 26.685-2.857 36.719-12.891 6.896-6.896 24.743-29.136 42.804-54.661 14.202-20.071 37.674-31.812 62.226-30.491 35.081 1.889 74.479-13.375 105.383-44.28z" fill="#aa8080"/><path d="m306.494 196.64c-14.949-14.949-34.593-23.083-55.977-24.751 1.531 1.319 3.022 2.701 4.468 4.147 39.913 39.913 31.244 113.294-19.363 163.9-30.904 30.905-70.302 46.169-105.384 44.28-24.552-1.322-48.023 10.42-62.226 30.491-18.061 25.525-35.908 47.765-42.804 54.661-2.46 2.46-5.135 4.575-7.964 6.345 6.06 1.462 10.562 6.919 10.562 13.427 0 7.002 5.233 12.957 12.193 13.723 13.087 1.44 26.685-2.857 36.719-12.891 6.896-6.896 24.742-29.136 42.804-54.661 14.202-20.071 37.674-31.812 62.226-30.491 35.082 1.889 74.479-13.376 105.384-44.28 50.606-50.607 59.275-123.987 19.362-163.9z" fill="#9d6b6b"/><path d="m251.29 387.633c-8.257-6.466-19.387-10.289-29.518-15.06-12.256-5.772-24.972-14.935-39.884-14.935s-27.628 9.163-39.884 14.935c-13.329 6.277-28.388 10.914-36.357 22.086-8.237 11.549-7.387 26.97-7.387 41.564 0 8.789-.308 17.878 1.246 26.241 6.156-8.012 12.925-17.145 19.733-26.755 14.558-20.549 38.632-31.879 63.794-30.827 22.17.926 45.99-4.95 68.257-17.249z" fill="#9d6b6b"/><path d="m221.773 372.572c-5.436-2.56-10.964-5.788-16.733-8.587-24.17 14.626-50.52 21.538-74.802 20.231-4.649-.25-9.259-.032-13.774.622-4.239 2.69-7.977 5.841-10.815 9.82-8.237 11.549-7.387 26.97-7.387 41.564 0 8.789-.308 17.879 1.246 26.241 6.156-8.012 12.925-17.145 19.733-26.755 14.558-20.55 38.632-31.879 63.794-30.827 22.169.927 45.988-4.95 68.256-17.249-8.258-6.465-19.388-10.289-29.518-15.06z" fill="#8b5e5e"/><path d="m142.594 216.003c-13.929 13.929-24.681 29.584-32.117 45.79 8.797 9.233 17.311 21.416 30.407 21.936 12.236.486 23.514-12.173 36.403-18.124 11.302-5.218 28.142-4.512 38.012-14.383 9.87-9.87 9.164-26.709 14.382-38.011 5.951-12.889 18.61-24.167 18.124-36.404-.071-1.793-.361-3.501-.833-5.135-34.827-1.546-73.768 13.721-104.378 44.331z" fill="#9d6b6b"/><path d="m310.88 330.453c26.147-42.844 27.999-92.646 2.752-125.66-6.672 7.665-10.027 18.883-14.692 28.788-5.206 11.055-14.048 22.396-14.048 35.847s8.842 24.792 14.049 35.847c3.976 8.443 7 17.841 11.939 25.178z" fill="#8b5e5e"/><path d="m434.774 224.361c-1.709-10.756-.275-22.144-3.593-32.122-3.433-10.322-11.453-18.551-16.426-27.827-5.134-9.578-7.615-20.802-14.191-29.033-6.772-8.477-17.19-13.315-25.272-20.109-8.272-6.954-14.891-16.361-24.298-21.277-9.495-4.962-20.961-4.99-31.368-7.591-10.247-2.562-20.378-7.97-31.274-7.97s-21.026 5.408-31.273 7.97c-10.407 2.602-21.873 2.63-31.368 7.591-9.408 4.916-16.027 14.324-24.299 21.277-8.082 6.794-18.5 11.631-25.273 20.109-6.576 8.231-9.056 19.455-14.191 29.033-4.973 9.277-12.993 17.506-16.426 27.827-2.451 7.369-2.309 15.507-2.756 23.592 50.601-50.454 123.86-59.059 163.728-19.191 39.913 39.913 31.244 113.293-19.363 163.9-23.312 23.312-51.455 37.723-78.934 42.588 5.494 5.564 10.792 11.369 17.513 14.881 9.495 4.962 20.961 4.99 31.368 7.591 10.247 2.562 20.378 7.97 31.274 7.97s21.026-5.408 31.273-7.97c10.407-2.602 21.873-2.63 31.368-7.591 9.408-4.916 16.027-14.323 24.299-21.277 8.082-6.794 18.5-11.631 25.273-20.109 6.576-8.232 9.056-19.455 14.191-29.034 4.973-9.277 12.993-17.506 16.426-27.827 3.318-9.977 1.884-21.366 3.593-32.122 1.647-10.367 6.604-20.727 6.604-31.64-.001-10.912-4.957-21.272-6.605-31.639z" fill="#ecbe6b"/><path d="m434.774 224.361c-1.709-10.756-.275-22.144-3.593-32.122-3.433-10.322-11.453-18.551-16.426-27.827-5.134-9.578-7.615-20.802-14.191-29.033-6.772-8.477-17.19-13.315-25.272-20.109-8.272-6.954-14.891-16.361-24.298-21.277-7.319-3.825-15.81-4.718-24.085-6.118 2.322 2.36 4.673 4.688 7.175 6.791 8.082 6.794 18.5 11.631 25.272 20.109 6.576 8.231 9.056 19.455 14.191 29.033 4.973 9.277 12.993 17.506 16.426 27.827 3.318 9.977 1.884 21.366 3.593 32.122 1.648 10.367 6.604 20.727 6.604 31.64s-4.956 21.273-6.604 31.64c-1.709 10.756-.275 22.144-3.593 32.122-3.433 10.321-11.453 18.551-16.426 27.827-5.135 9.578-7.615 20.802-14.191 29.034-6.772 8.478-17.191 13.315-25.273 20.109-8.272 6.954-14.891 16.361-24.299 21.277-9.494 4.961-20.961 4.989-31.368 7.591-10.247 2.562-20.377 7.97-31.273 7.97s-21.027-5.408-31.274-7.97c-2.384-.596-4.825-1.057-7.284-1.473 5.356 5.442 10.561 11.057 17.123 14.486 9.495 4.962 20.961 4.99 31.368 7.591 10.247 2.562 20.378 7.97 31.274 7.97s21.026-5.408 31.273-7.97c10.407-2.602 21.873-2.63 31.368-7.591 9.408-4.916 16.027-14.323 24.299-21.277 8.082-6.794 18.5-11.631 25.273-20.109 6.576-8.232 9.056-19.455 14.191-29.034 4.973-9.277 12.993-17.506 16.426-27.827 3.318-9.977 1.884-21.366 3.593-32.122 1.647-10.367 6.604-20.727 6.604-31.64.001-10.913-4.955-21.273-6.603-31.64z" fill="#eab14d"/><path d="m196.412 321.286h-21.649c-4.267 0-7.726-3.459-7.726-7.726 0-4.268 3.459-7.726 7.726-7.726h21.649c4.267 0 7.726 3.459 7.726 7.726 0 4.268-3.459 7.726-7.726 7.726z" fill="#8b5e5e"/><path d="m259.742 293.04c-1.978 0-3.955-.755-5.463-2.264l-15.895-15.895c-3.018-3.018-3.018-7.91 0-10.928 3.018-3.016 7.91-3.017 10.927.001l15.896 15.895c3.017 3.018 3.017 7.91-.001 10.928-1.509 1.508-3.487 2.263-5.464 2.263z" fill="#8b5e5e"/><path d="m251.29 353.5c-1.977 0-3.954-.755-5.463-2.263-3.017-3.017-3.018-7.91-.001-10.927l12.952-12.953c3.018-3.018 7.911-3.017 10.927-.001 3.018 3.017 3.018 7.91.001 10.927l-12.952 12.953c-1.509 1.51-3.486 2.264-5.464 2.264z" fill="#8b5e5e"/><path d="m65.802 441.297h-17.029c-4.267 0-7.726-3.459-7.726-7.726s3.459-7.726 7.726-7.726h17.029c4.267 0 7.726 3.459 7.726 7.726s-3.459 7.726-7.726 7.726z" fill="#8b5e5e"/><path d="m48.773 441.297h17.029c4.267 0 7.726-3.459 7.726-7.726s-3.459-7.726-7.726-7.726h-5.803c-3.986 5.45-7.881 10.643-11.563 15.445.111.004.224.007.337.007z" fill="#8b5e5e"/><path d="m128.659 347.023c-4.267 0-7.726-3.459-7.726-7.726v-21.011c0-4.268 3.459-7.726 7.726-7.726s7.726 3.459 7.726 7.726v21.011c.001 4.267-3.458 7.726-7.726 7.726z" fill="#8b5e5e"/><circle cx="266.356" cy="220.986" fill="#95d6a4" r="7.726"/><circle cx="153.966" cy="246.002" fill="#95d6a4" r="7.726"/><circle cx="231.63" cy="307.866" fill="#95d6a4" r="7.726"/><circle cx="52.304" cy="468.379" fill="#78c2a4" r="7.726"/><path d="m201.173 225.961c-.596 0-1.2-.069-1.804-.214l-15.579-3.727c-4.15-.993-6.709-5.162-5.716-9.312.992-4.149 5.167-6.708 9.312-5.716l15.579 3.727c4.15.993 6.709 5.162 5.716 9.312-.848 3.545-4.016 5.93-7.508 5.93z" fill="#8b5e5e"/><path d="m266.356 140.577h-22.509c-4.267 0-7.726-3.459-7.726-7.726 0-4.268 3.459-7.726 7.726-7.726h22.509c4.268 0 7.726 3.459 7.726 7.726s-3.458 7.726-7.726 7.726zm87.138 51.603 10.674-10.674c3.017-3.018 3.017-7.91 0-10.928-3.018-3.016-7.91-3.016-10.928 0l-10.674 10.674c-3.017 3.018-3.017 7.91 0 10.928 1.509 1.508 3.487 2.263 5.464 2.263s3.955-.755 5.464-2.263zm28.539 42.114c0-4.268-3.459-7.726-7.726-7.726h-15.61c-4.268 0-7.726 3.459-7.726 7.726 0 4.268 3.459 7.726 7.726 7.726h15.61c4.267.001 7.726-3.458 7.726-7.726zm-51.785-77.218c3.017-3.018 3.017-7.91 0-10.928l-12.217-12.217c-3.018-3.016-7.91-3.016-10.928 0-3.017 3.018-3.017 7.91 0 10.928l12.217 12.217c1.509 1.508 3.487 2.263 5.464 2.263s3.955-.755 5.464-2.263zm69.593 136.567c3.017-3.018 3.017-7.91 0-10.928l-7.199-7.199c-3.018-3.016-7.91-3.016-10.928 0-3.017 3.018-3.017 7.91 0 10.928l7.199 7.199c1.509 1.508 3.487 2.263 5.464 2.263s3.955-.755 5.464-2.263zm-22.297 21.949c0-4.268-3.459-7.726-7.726-7.726h-15.145c-4.268 0-7.726 3.459-7.726 7.726 0 4.268 3.459 7.726 7.726 7.726h15.145c4.267.001 7.726-3.458 7.726-7.726zm25.398-103.968c3.017-3.018 3.017-7.91 0-10.928l-11.373-11.373c-3.018-3.016-7.91-3.016-10.928 0-3.017 3.018-3.017 7.91 0 10.928l11.373 11.373c1.509 1.508 3.487 2.263 5.464 2.263s3.955-.755 5.464-2.263zm-62.804 156.121 13.236-13.236c3.017-3.018 3.017-7.91 0-10.928-3.018-3.016-7.91-3.016-10.928 0l-13.236 13.236c-3.017 3.018-3.017 7.91 0 10.928 1.509 1.508 3.487 2.263 5.464 2.263s3.955-.755 5.464-2.263zm-23.889 34.819c3.017-3.018 3.017-7.91 0-10.928l-9.95-9.95c-3.018-3.016-7.91-3.016-10.928 0-3.017 3.018-3.017 7.91 0 10.928l9.95 9.95c1.509 1.508 3.487 2.263 5.464 2.263s3.955-.755 5.464-2.263z" fill="#eab14d"/><path d="m302.908 400.151 2.413 2.413c1.509 1.508 3.487 2.263 5.464 2.263s3.955-.755 5.464-2.263c2.747-2.748 2.992-7.048.738-10.074-2.252 1.881-4.622 3.567-7.202 4.915-2.199 1.149-4.504 2.033-6.877 2.746z" fill="#e7a52e"/><path d="m399.841 282.715-7.113-7.113c-.365 6.634-.338 13.303-1.675 19.554 1.049.499 2.187.75 3.324.75 1.977 0 3.955-.755 5.464-2.263 3.017-3.018 3.017-7.909 0-10.928z" fill="#e7a52e"/><path d="m393.566 203.757c.527 3.316 1.393 6.632 2.326 9.965.523.109 1.054.164 1.586.164 1.977 0 3.955-.755 5.464-2.263 3.017-3.018 3.017-7.91 0-10.928l-10.441-10.441c.19 4.514.36 9.062 1.065 13.503z" fill="#e7a52e"/></g></svg>